<?xml version="1.0" encoding="UTF-8"?>
<svg xmlns="http://www.w3.org/2000/svg" version="1.1" viewBox="0 0 322.3 203.7">
  <defs>
    <style>
      .cls-1 {
        fill: #fff;
      }

      .cls-2, .cls-3 {
        opacity: .5;
      }

      .cls-3 {
        fill: #ffd875;
      }
    </style>
  </defs>
  <!-- Generator: Adobe Illustrator 28.7.2, SVG Export Plug-In . SVG Version: 1.2.0 Build 154)  -->
  <g>
    <g id="Layer_1">
      <g>
        <path class="cls-3" d="M244.8,110.8c-7.6,39.8-42.6,70-84.6,70s-77-30.1-84.6-70c-6.3,2.1-10.1,9.1-7.8,15.8,13.3,38.3,49.6,65.8,92.4,65.8s79.2-27.5,92.4-65.8c2.3-6.7-1.5-13.7-7.8-15.8h0Z"/>
        <path class="cls-3" d="M115.8,140.9c-1.5-3.3-2.4-7-2.4-11v-9.4c0-5.7-4.6-10.4-10.4-10.4h-5c3,11.9,9.2,22.5,17.8,30.8Z"/>
        <path class="cls-3" d="M227.7,110.1c-7,30.8-34.6,53.8-67.5,53.8s-60.5-23-67.5-53.8h-10.7c7.2,36.6,39.5,64.2,78.2,64.2s71-27.6,78.2-64.2h-10.7Z"/>
        <path class="cls-3" d="M222.4,110.2c-3.1.1-6.1,1.1-8.7,2.7l-60.3,38.9c-4,2.5-8.2,3.9-12.4,4.1,6,1.9,12.5,2.9,19.1,2.9,30.1,0,55.3-20.7,62.2-48.6Z"/>
        <path class="cls-1" d="M240.2,87.1c-3.8-40.9-38.2-72.8-80-72.8s-76.2,32-80,72.8c-.3,3.6,2.2,7,5.8,7.3,3.6.3,6.6-2.3,6.9-5.8,3.1-34.4,32-61.4,67.2-61.4s64.2,27,67.2,61.4c.3,3.5,3.4,6.1,6.9,5.8,3.6-.3,6.2-3.7,5.8-7.3h0Z"/>
        <path class="cls-1" d="M148.7,101.7v-2.9c0-2.7.6-5,1.7-7,1.1-1.9,2.5-3.6,4.1-5.1,1.6-1.5,3.2-2.8,4.8-4,1.6-1.2,2.9-2.5,4-3.8,1.1-1.3,1.7-2.7,1.7-4.3s-.7-3.3-2.1-4.6c-1.4-1.3-3.3-1.9-5.6-1.9s-4.1.7-5.8,2.2c-1.6,1.5-2.5,3.8-2.5,6.9h-17.3c0-5.6,1.2-10.3,3.8-13.9,2.5-3.6,5.7-6.3,9.7-8.1,4-1.8,8.2-2.7,12.7-2.7s8.9.9,12.8,2.7c3.8,1.8,6.9,4.3,9.2,7.5s3.4,7,3.4,11.3-.6,5.7-1.7,7.9c-1.1,2.2-2.5,4-4.1,5.5-1.6,1.5-3.3,2.9-5,4-1.7,1.2-3.1,2.3-4.2,3.4-1.1,1.1-1.7,2.4-1.7,3.8v2.9h-17.9ZM157.6,124.7c-2.7,0-4.8-.9-6.5-2.6-1.6-1.7-2.5-3.8-2.5-6.3s.8-4.6,2.5-6.3c1.6-1.7,3.8-2.6,6.5-2.6s4.7.9,6.4,2.6c1.7,1.7,2.6,3.8,2.6,6.3s-.9,4.6-2.6,6.3c-1.7,1.7-3.8,2.6-6.4,2.6Z"/>
      </g>
      <g class="cls-2">
        <path class="cls-1" d="M257.7,74.4s44.5,25.7,48.6,30.5c4.1,4.8-31.4,30-33,32.9-1.6,2.9,9.2,4.1,10.5,6.6s-1,9.3-7.8,6.6-18.5-6.4-14.3-12.1c4.3-5.7,30.4-24.8,33.4-28.2,0,0-35.2-23.5-39.7-29.7-4.6-6.2,2.4-6.4,2.4-6.4Z"/>
        <path class="cls-1" d="M62.7,74.4s-44.5,25.7-48.6,30.5c-4.1,4.8,31.4,30,33,32.9s-9.2,4.1-10.5,6.6,1,9.3,7.8,6.6c6.8-2.7,18.5-6.4,14.3-12.1-4.3-5.7-30.4-24.8-33.4-28.2,0,0,35.2-23.5,39.7-29.7,4.6-6.2-2.4-6.4-2.4-6.4Z"/>
      </g>
    </g>
  </g>
</svg>