<svg width="756" height="400" viewBox="0 0 756 400" fill="none" xmlns="http://www.w3.org/2000/svg">
<g opacity="0.2">
<path d="M306.981 47.5651L308.727 48.1247L308.713 48.0713L463.976 97.8623L463.976 97.8624C496.984 108.439 508.032 149.672 484.735 175.336L484.735 175.336L373.937 297.446C348.554 325.415 302.318 314.215 292.551 277.763L246.341 105.303C236.574 68.8517 271.015 36.0348 306.981 47.5651Z" stroke="white" stroke-width="2"/>
<path d="M444.89 447.398C580.774 410.989 667.781 283.462 658.012 148.181C679.697 149.896 697.565 168.655 695.911 191.907C686.281 326.882 592.778 446.97 454.743 483.956C316.708 520.942 175.674 463.641 99.8617 351.618C86.7996 332.271 92.8741 307.117 110.774 294.831C169.905 416.877 309.013 483.807 444.89 447.398Z" stroke="white" stroke-opacity="0.6"/>
<path d="M248.603 324.122C252.126 336.368 257.715 347.195 264.776 356.373C231.692 336.147 203.263 306.954 183.379 271.253L198.381 267.509C215.85 263.149 234.365 274.627 239.725 293.26L248.603 324.122Z" stroke="white" stroke-opacity="0.6"/>
<path d="M432.717 396.574C537.784 370.26 603.299 270.194 595.911 159.932L628.894 151.671C641.255 281.252 565.482 400.228 442.588 431.007C319.694 461.786 190.428 394.163 131.817 276.166L164.8 267.905C217.384 366.848 327.65 422.888 432.717 396.574Z" stroke="white" stroke-opacity="0.6"/>
<path d="M401.816 359.37L401.816 359.37L555.343 181.325C561.736 173.945 570.011 168.642 579.258 165.699C583.971 264.416 524.259 353.21 429.446 376.824C409.238 381.857 388.839 383.53 368.73 382.303C380.931 377.931 392.302 370.382 401.816 359.37Z" stroke="white" stroke-opacity="0.6"/>
<path d="M582.488 90.6875C542.732 -18.1295 425.693 -80.432 311.647 -49.8734C197.601 -19.3148 127.394 93.16 147.372 207.277L147.372 207.278C149.377 218.53 142.078 229.41 130.403 231.527C118.756 233.64 107.819 225.184 105.801 213.451C82.7234 78.5075 165.831 -54.3108 300.77 -90.4675C435.529 -126.576 573.761 -53.4176 621.44 74.7207L621.387 74.7349L621.577 75.249C625.695 86.4152 620.241 99.2673 609.308 103.205C598.353 107.151 586.431 101.421 582.488 90.6875ZM582.488 90.6875L582.019 90.8591L582.488 90.6867C582.488 90.687 582.488 90.6873 582.488 90.6875Z" stroke="white" stroke-opacity="0.6"/>
</g>
</svg>
